<?xml version="1.0" encoding="UTF-8"?>
<svg xmlns="http://www.w3.org/2000/svg" width="89" height="38" viewBox="0 0 89 38" fill="none"><path fill-rule="evenodd" clip-rule="evenodd" d="M9.05915 12.6037C6.61082 12.6037 4.60764 13.5904 3.04961 15.5936V3.3486L0 8.63393V30.0543H3.05294V27.5761C4.57774 29.5161 6.58092 30.4696 9.02925 30.4696C11.4776 30.4696 13.4808 29.6125 15.1019 27.895C15.7298 27.2173 16.238 26.4898 16.6234 25.7058C17.0287 26.4964 17.5602 27.2273 18.218 27.895C19.9653 29.6424 22.1612 30.5028 24.862 30.5028C27.5628 30.5028 29.7586 29.6457 31.4728 27.895C32.0907 27.2771 32.5956 26.6094 32.991 25.8918C33.3863 26.6094 33.8846 27.2771 34.4925 27.895C36.2399 29.6424 38.4989 30.5327 41.2628 30.5327C44.0267 30.5327 46.3189 29.6424 48.0663 27.895C48.1062 27.8518 48.1493 27.8119 48.1892 27.7688C50.2621 29.6025 52.747 30.5327 55.697 30.5327C58.0191 30.5327 59.8296 29.9912 61.1982 28.9115C62.2148 28.0843 62.8426 27.0977 63.1017 25.9416C63.8725 28.9746 66.0251 30.4928 69.5564 30.4928C71.7523 30.4928 73.7256 30.0144 75.4132 29.061L73.8219 24.0647C72.7721 24.5431 71.8486 24.7955 71.1178 24.7955C69.7491 24.7955 69.0482 23.9052 69.0482 22.1545V17.507H74.3933V12.3513H69.0482V3.34527L67.4636 6.08262L67.2908 6.3816L62.8161 14.1053V14.1186C59.8096 11.6835 54.0493 11.0158 50.9332 13.5239C50.0263 14.2315 49.4283 15.0953 49.146 16.1118C48.8337 15.66 48.4749 15.2315 48.0696 14.8295C46.3222 13.0489 44.0334 12.1586 41.2661 12.1586C38.4989 12.1586 36.2432 13.0489 34.4958 14.8295C33.8647 15.4607 33.3464 16.1517 32.9478 16.8991C32.5591 16.2181 32.0674 15.5803 31.4761 14.9889C29.7586 13.2416 27.5661 12.3513 24.8653 12.3513C22.1645 12.3513 19.9687 13.2416 18.2213 14.9889C17.5336 15.6866 16.9855 16.4473 16.5736 17.2712C16.1948 16.5304 15.7032 15.846 15.1052 15.2115C13.4841 13.4641 11.4809 12.6037 9.06579 12.6037H9.05915ZM86.2762 0C86.6216 0 86.9572 0.0896945 87.286 0.265762C87.6149 0.441829 87.8707 0.697624 88.0534 1.0265C88.2361 1.35538 88.3292 1.70087 88.3292 2.05965C88.3292 2.41843 88.2395 2.75395 88.0568 3.08283C87.8774 3.41171 87.6249 3.66419 87.296 3.84358C86.9705 4.02629 86.6283 4.11598 86.2728 4.11598C85.9174 4.11598 85.5752 4.02629 85.2496 3.84358C84.9241 3.66419 84.6683 3.40839 84.4889 3.08283C84.3062 2.75728 84.2165 2.41511 84.2165 2.05965C84.2165 1.7042 84.3095 1.35871 84.4922 1.0265C84.6783 0.697624 84.9341 0.441829 85.2629 0.265762C85.5918 0.0896945 85.9273 0 86.2762 0ZM62.7762 22.5067C62.3211 21.5898 61.5039 20.8556 60.2415 20.2344C59.1917 19.6929 57.7932 19.1847 56.1089 18.7096C55.0591 18.4239 54.521 18.0087 54.521 17.4373C54.521 16.8958 55.1887 16.4506 56.1089 16.4506C57.4742 16.4506 58.8761 16.9589 60.3378 17.9455L62.8094 14.1518C62.7928 16.4805 62.7762 18.6963 62.7762 22.5067ZM82.7017 22.5532L83.1468 3.34527H76.7885L77.1705 22.5532H82.7017ZM80.0009 30.4696C81.7815 30.4696 83.2099 29.0378 83.2099 27.1641C83.2099 26.2439 82.891 25.4799 82.2565 24.8753C81.622 24.2408 80.8579 23.9219 80.0009 23.9219C78.1239 23.9219 76.6323 25.3536 76.6323 27.1641C76.6323 29.071 78.094 30.4696 80.0009 30.4696ZM50.4249 23.7325C50.611 22.9817 50.704 22.1878 50.7073 21.3539C51.1358 21.7094 51.6441 22.025 52.2354 22.2974C52.6474 22.4867 53.4745 22.7758 54.6505 23.1877C55.8597 23.5996 56.4943 23.7923 56.5906 23.8222C57.2251 24.078 57.544 24.3936 57.544 24.8088C57.544 25.5397 56.9095 25.9217 55.6671 25.9217C53.8566 25.9217 52.1092 25.1909 50.4249 23.7325ZM45.7143 21.3141C45.7143 22.6163 45.2692 23.6993 44.4121 24.5896C43.555 25.4467 42.5052 25.8918 41.2661 25.8918C40.027 25.8918 38.9772 25.4467 38.1202 24.5896C37.2631 23.6993 36.8478 22.6196 36.8478 21.3141C36.8478 20.0085 37.2598 18.992 38.1202 18.1349C38.9772 17.2446 40.027 16.7994 41.2661 16.7994C42.5052 16.7994 43.555 17.2446 44.4121 18.1349C45.2692 18.992 45.7143 20.075 45.7143 21.3141ZM29.9148 21.4104C29.9148 22.8721 29.4364 24.1112 28.4531 25.1311C27.4665 26.1476 26.2905 26.6559 24.862 26.6559C23.4335 26.6559 22.2542 26.1476 21.2709 25.1311C20.2842 24.1145 19.8092 22.8754 19.8092 21.4104C19.8092 19.9454 20.2876 18.7395 21.2709 17.723C22.2575 16.7064 23.4335 16.1982 24.862 16.1982C26.2905 16.1982 27.4698 16.7064 28.4531 17.723C29.4397 18.7395 29.9148 19.9786 29.9148 21.4104ZM8.67711 27.6093C6.92973 27.6093 5.53116 27.0379 4.4814 25.8619C3.43165 24.6859 2.92338 23.2541 2.92338 21.5068C2.92338 19.7594 3.43165 18.3907 4.4814 17.2147C5.53116 16.0387 6.92973 15.4673 8.67711 15.4673C10.4245 15.4673 11.7932 16.0387 12.8429 17.2147C13.9226 18.3907 14.4641 19.8225 14.4641 21.5068C14.4641 23.191 13.9226 24.6859 12.8429 25.8619C11.7932 27.0379 10.3946 27.6093 8.67711 27.6093Z" fill="#8b7fff"/></svg>
