<?xml version="1.0" encoding="UTF-8"?>
<svg xmlns="http://www.w3.org/2000/svg" width="184" height="38" viewBox="0 0 184 38" fill="none"><path fill-rule="evenodd" clip-rule="evenodd" d="M9.05915 12.6037C6.61082 12.6037 4.60764 13.5904 3.04961 15.5936V3.3486L0 8.63393V30.0543H3.05294V27.5761C4.57774 29.5161 6.58092 30.4696 9.02925 30.4696C11.4776 30.4696 13.4808 29.6125 15.1019 27.895C15.7298 27.2173 16.238 26.4898 16.6234 25.7058C17.0287 26.4964 17.5602 27.2273 18.218 27.895C19.9653 29.6424 22.1612 30.5028 24.862 30.5028C27.5628 30.5028 29.7586 29.6457 31.4728 27.895C32.0907 27.2771 32.5956 26.6094 32.991 25.8918C33.3863 26.6094 33.8846 27.2771 34.4925 27.895C36.2399 29.6424 38.4989 30.5327 41.2628 30.5327C44.0267 30.5327 46.3189 29.6424 48.0663 27.895C48.1062 27.8518 48.1493 27.8119 48.1892 27.7688C50.2621 29.6025 52.747 30.5327 55.697 30.5327C58.0191 30.5327 59.8296 29.9912 61.1982 28.9115C62.2148 28.0843 62.8426 27.0977 63.1017 25.9416C63.8725 28.9746 66.0251 30.4928 69.5564 30.4928C71.7523 30.4928 73.7256 30.0144 75.4132 29.061L73.8219 24.0647C72.7721 24.5431 71.8486 24.7955 71.1178 24.7955C69.7491 24.7955 69.0482 23.9052 69.0482 22.1545V17.507H74.3933V12.3513H69.0482V3.34527L67.4636 6.08262L67.2908 6.3816L62.8161 14.1053V14.1186C59.8096 11.6835 54.0493 11.0158 50.9332 13.5239C50.0263 14.2315 49.4283 15.0953 49.146 16.1118C48.8337 15.66 48.4749 15.2315 48.0696 14.8295C46.3222 13.0489 44.0334 12.1586 41.2661 12.1586C38.4989 12.1586 36.2432 13.0489 34.4958 14.8295C33.8647 15.4607 33.3464 16.1517 32.9478 16.8991C32.5591 16.2181 32.0674 15.5803 31.4761 14.9889C29.7586 13.2416 27.5661 12.3513 24.8653 12.3513C22.1645 12.3513 19.9687 13.2416 18.2213 14.9889C17.5336 15.6866 16.9855 16.4473 16.5736 17.2712C16.1948 16.5304 15.7032 15.846 15.1052 15.2115C13.4841 13.4641 11.4809 12.6037 9.06579 12.6037H9.05915ZM86.2762 0C86.6216 0 86.9572 0.0896945 87.286 0.265762C87.6149 0.441829 87.8707 0.697624 88.0534 1.0265C88.2361 1.35538 88.3292 1.70087 88.3292 2.05965C88.3292 2.41843 88.2395 2.75395 88.0568 3.08283C87.8774 3.41171 87.6249 3.66419 87.296 3.84358C86.9705 4.02629 86.6283 4.11598 86.2728 4.11598C85.9174 4.11598 85.5752 4.02629 85.2496 3.84358C84.9241 3.66419 84.6683 3.40839 84.4889 3.08283C84.3062 2.75728 84.2165 2.41511 84.2165 2.05965C84.2165 1.7042 84.3095 1.35871 84.4922 1.0265C84.6783 0.697624 84.9341 0.441829 85.2629 0.265762C85.5918 0.0896945 85.9273 0 86.2762 0ZM86.2762 0.338846C85.9871 0.338846 85.7048 0.41193 85.4324 0.561421C85.16 0.710912 84.944 0.920199 84.7912 1.19593C84.6384 1.47165 84.5587 1.75735 84.5587 2.05633C84.5587 2.35531 84.6351 2.63768 84.7879 2.90677C84.9407 3.17917 85.15 3.39178 85.4257 3.54127C85.6981 3.69409 85.9838 3.77049 86.2795 3.77049C86.5751 3.77049 86.8608 3.69409 87.1332 3.54127C87.4056 3.38846 87.6183 3.17917 87.7677 2.90677C87.9172 2.63436 87.9936 2.35199 87.9936 2.05633C87.9936 1.76067 87.9172 1.47165 87.7644 1.19593C87.6116 0.920199 87.3957 0.70759 87.1233 0.561421C86.8475 0.41193 86.5685 0.338846 86.2828 0.338846H86.2762ZM85.3726 3.19246V0.983318H86.1333C86.3924 0.983318 86.5818 1.00325 86.6981 1.04311C86.8143 1.08298 86.9073 1.15606 86.9771 1.25572C87.0469 1.35871 87.0801 1.46501 87.0801 1.57796C87.0801 1.73742 87.0236 1.88026 86.9073 1.99986C86.7911 2.11945 86.6383 2.18589 86.4456 2.2025C86.5253 2.23572 86.5884 2.27558 86.6349 2.31877C86.7246 2.40514 86.8343 2.55131 86.9638 2.75728L87.2329 3.18914H86.801L86.605 2.84033C86.4522 2.5646 86.326 2.39518 86.2297 2.32541C86.1632 2.27558 86.0702 2.24901 85.9439 2.25233H85.7347V3.18914H85.3759L85.3726 3.19246ZM85.7313 1.9467H86.1632C86.3692 1.9467 86.512 1.9168 86.5884 1.85369C86.6648 1.79389 86.7014 1.71084 86.7014 1.61118C86.7014 1.54474 86.6814 1.48826 86.6449 1.43511C86.6084 1.38196 86.5585 1.34542 86.4954 1.31884C86.429 1.29227 86.3127 1.2823 86.1366 1.2823H85.7313V1.9467ZM62.7762 22.5067C62.3211 21.5898 61.5039 20.8556 60.2415 20.2344C59.1917 19.6929 57.7932 19.1847 56.1089 18.7096C55.0591 18.4239 54.521 18.0087 54.521 17.4373C54.521 16.8958 55.1887 16.4506 56.1089 16.4506C57.4742 16.4506 58.8761 16.9589 60.3378 17.9455L62.8094 14.1518C62.7928 16.4805 62.7762 18.6963 62.7762 22.5067ZM82.7017 22.5532L83.1468 3.34527H76.7885L77.1705 22.5532H82.7017ZM80.0009 30.4696C81.7815 30.4696 83.2099 29.0378 83.2099 27.1641C83.2099 26.2439 82.891 25.4799 82.2565 24.8753C81.622 24.2408 80.8579 23.9219 80.0009 23.9219C78.1239 23.9219 76.6323 25.3536 76.6323 27.1641C76.6323 29.071 78.094 30.4696 80.0009 30.4696ZM50.4249 23.7325C50.611 22.9817 50.704 22.1878 50.7073 21.3539C51.1358 21.7094 51.6441 22.025 52.2354 22.2974C52.6474 22.4867 53.4745 22.7758 54.6505 23.1877C55.8597 23.5996 56.4943 23.7923 56.5906 23.8222C57.2251 24.078 57.544 24.3936 57.544 24.8088C57.544 25.5397 56.9095 25.9217 55.6671 25.9217C53.8566 25.9217 52.1092 25.1909 50.4249 23.7325ZM45.7143 21.3141C45.7143 22.6163 45.2692 23.6993 44.4121 24.5896C43.555 25.4467 42.5052 25.8918 41.2661 25.8918C40.027 25.8918 38.9772 25.4467 38.1202 24.5896C37.2631 23.6993 36.8478 22.6196 36.8478 21.3141C36.8478 20.0085 37.2598 18.992 38.1202 18.1349C38.9772 17.2446 40.027 16.7994 41.2661 16.7994C42.5052 16.7994 43.555 17.2446 44.4121 18.1349C45.2692 18.992 45.7143 20.075 45.7143 21.3141ZM29.9148 21.4104C29.9148 22.8721 29.4364 24.1112 28.4531 25.1311C27.4665 26.1476 26.2905 26.6559 24.862 26.6559C23.4335 26.6559 22.2542 26.1476 21.2709 25.1311C20.2842 24.1145 19.8092 22.8754 19.8092 21.4104C19.8092 19.9454 20.2876 18.7395 21.2709 17.723C22.2575 16.7064 23.4335 16.1982 24.862 16.1982C26.2905 16.1982 27.4698 16.7064 28.4531 17.723C29.4397 18.7395 29.9148 19.9786 29.9148 21.4104ZM8.67711 27.6093C6.92973 27.6093 5.53116 27.0379 4.4814 25.8619C3.43165 24.6859 2.92338 23.2541 2.92338 21.5068C2.92338 19.7594 3.43165 18.3907 4.4814 17.2147C5.53116 16.0387 6.92973 15.4673 8.67711 15.4673C10.4245 15.4673 11.7932 16.0387 12.8429 17.2147C13.9226 18.3907 14.4641 19.8225 14.4641 21.5068C14.4641 23.191 13.9226 24.6859 12.8429 25.8619C11.7932 27.0379 10.3946 27.6093 8.67711 27.6093Z" fill="#8b7fff"/><path d="M107.903 30.4463L98.206 5.98959H97.113L87.3496 30.4463H89.5654L92.4788 23.0349H102.77L105.684 30.4463H107.9H107.903ZM102.113 21.148H93.1432L97.6445 9.59731L102.113 21.148ZM120.045 15.9191C118.557 13.6369 116.042 12.3114 113.128 12.3114C110.614 12.3114 108.494 13.205 106.807 14.959C105.119 16.7131 104.259 18.8624 104.259 21.4104C104.259 23.9584 105.086 26.141 106.773 27.895C108.461 29.649 110.58 30.5094 113.095 30.5094C116.009 30.5094 118.557 29.154 120.045 26.802V29.0843C120.045 33.4195 117.298 36.1336 112.896 36.1336C110.481 36.1336 108.295 35.3729 106.278 33.8514L105.252 35.4393C107.534 37.1269 110.049 37.9541 112.863 37.9541C115.676 37.9541 117.925 37.1269 119.547 35.5057C121.201 33.8846 122.028 31.6987 122.028 28.8883V12.7433H120.042V15.9191H120.045ZM113.162 28.6923C111.142 28.6923 109.488 27.998 108.199 26.606C106.91 25.2174 106.245 23.4966 106.245 21.4104C106.245 19.3242 106.906 17.6034 108.199 16.2148C109.491 14.8262 111.145 14.1285 113.162 14.1285C115.178 14.1285 116.869 14.8228 118.191 16.2148C119.547 17.6034 120.211 19.3242 120.211 21.344C120.211 23.3638 119.55 25.151 118.191 26.5728C116.869 27.9946 115.178 28.6923 113.162 28.6923ZM138.937 20.8158C138.937 18.2013 138.143 16.1483 136.589 14.6268C135.034 13.0721 133.081 12.3114 130.699 12.3114C128.051 12.3114 125.935 13.1718 124.31 14.9258C122.689 16.6799 121.895 18.8624 121.895 21.5433C121.895 26.1775 124.576 30.8416 131.094 30.8416C134.007 30.8416 136.818 29.7487 138.539 28.3933L137.612 26.8718C136.024 28.1641 133.409 28.9913 131.127 28.9913C126.792 28.9913 124.244 26.3104 123.945 22.3738H138.838C138.904 21.5798 138.937 21.0516 138.937 20.8191V20.8158ZM130.699 14.1319C134.306 14.1319 136.854 16.6134 136.888 20.5533H123.948C124.347 16.6799 126.991 14.1319 130.699 14.1319ZM140.688 30.4463V20.5201C140.688 18.4007 141.283 16.8127 142.442 15.7563C143.635 14.6634 144.99 14.1352 146.545 14.1352C149.82 14.1352 151.807 16.4174 151.807 20.1248V30.4496H153.793V19.7594C153.793 17.3775 153.132 15.5238 151.774 14.2315C150.418 12.9426 148.76 12.2782 146.777 12.2782C143.897 12.2782 141.681 13.504 140.622 15.8527V12.7433H138.701V30.4463H140.688ZM162.494 30.8449C164.214 30.8449 165.802 30.4463 167.257 29.6191C168.713 28.7919 169.805 27.699 170.5 26.3436L168.879 25.3503C167.719 27.4997 165.171 29.0245 162.49 29.0245C160.437 29.0245 158.75 28.3302 157.428 26.9382C156.105 25.5496 155.441 23.7624 155.441 21.6097C155.441 19.4571 156.135 17.6399 157.494 16.248C158.849 14.8262 160.603 14.1285 162.69 14.1285C165.371 14.1285 167.786 15.5504 168.978 17.8027L170.599 16.8758C169.244 14.0621 166.165 12.3081 162.69 12.3081C160.009 12.3081 157.793 13.1685 156.039 14.9225C154.318 16.6765 153.458 18.8923 153.458 21.6064C153.458 24.3205 154.318 26.5031 156.006 28.2571C157.693 29.9779 159.876 30.8383 162.49 30.8383L162.494 30.8449ZM176.024 27.8651L169.702 12.7433H167.52L175.064 30.4463L174.636 31.5725C173.476 34.5855 172.254 36.107 170.4 36.107C169.739 35.9409 169.011 35.9409 168.218 35.5788L167.919 37.3328C168.679 37.7614 169.54 37.9607 170.467 37.9607C173.147 37.9607 174.769 36.2731 176.523 31.7718L184 12.7433H181.818L176.028 27.8651H176.024Z" fill="#ffffff"/></svg>
